# xmcd CD database file
#
# Track frame offsets:
#	187
#	19262
#	36287
#	53812
#	74965
#	89240
#	113707
#	133262
#	150962
#	168215
#	207387
#
# Disc length: 2866 seconds
#
# Revision: 4
# Processed by: cddbd v1.5PL3 Copyright (c) Steve Scherf et al.
# Submitted via: CDex 1.51
#
DISCID=a00b300b
DTITLE=佐野元春 - SOMEDAY
DYEAR=2002
DGENRE=JPop
TTITLE0=Sugartime
TTITLE1=Happy Man
TTITLE2=DOWN TOWN BOY
TTITLE3=二人のバースディ
TTITLE4=麗しのドンナ・アンナ
TTITLE5=SOMEDAY
TTITLE6=I'm in blue
TTITLE7=真夜中に清めて
TTITLE8=Vanity Factory
TTITLE9=Rock and Roll Night
TTITLE10=サンチャイルドは僕の友達
EXTD=YEAR: 2002
EXTT0=
EXTT1=
EXTT2=
EXTT3=
EXTT4=
EXTT5=
EXTT6=
EXTT7=
EXTT8=
EXTT9=
EXTT10=
PLAYORDER=
